<svg width="16" height="20" viewBox="0 0 16 20" xmlns="http://www.w3.org/2000/svg"><title>Page 1</title><g fill="#808184" fill-rule="evenodd"><path d="M13.427 11.064c-.148-1.758.732-3.035 2.044-4.084-.87-1.104-1.916-1.808-3.32-1.902-.962-.064-1.86.21-2.746.52-.74.26-1.467.314-2.22.066-.41-.136-.836-.235-1.26-.333-2.484-.574-4.378.407-5.376 2.78C.2 8.938.028 9.808.004 10.7c-.08 3 1.002 5.587 2.81 7.904.25.322.574.598.9.848.66.505 1.403.654 2.206.39.293-.097.59-.19.874-.307.965-.4 1.935-.422 2.916-.074.27.097.54.205.818.262.423.088.856.2 1.28.186.813-.025 1.403-.527 1.92-1.097.826-.91 1.454-1.954 1.942-3.082.13-.3.235-.613.345-.9-1.61-.777-2.444-2.048-2.588-3.764"/><path d="M11.596.75c-2.513.45-3.734 2.373-3.703 4.61 2.08.128 4.44-2.808 3.703-4.61"/></g></svg>