<svg width="17" height="20" viewBox="0 0 17 20" xmlns="http://www.w3.org/2000/svg" xmlns:xlink="http://www.w3.org/1999/xlink"><title>Page 1</title><defs><path id="a" d="M0 .054V18.47h9.963V.054H0z"/><path id="c" d="M.028 9.253H12.05V.04H.028v9.213z"/></defs><g fill="none" fill-rule="evenodd"><g transform="translate(0 .873)"><mask id="b" fill="#fff"><use xlink:href="#a"/></mask><path d="M.76 18.47c-.475-.136-.76-.5-.76-.976V1.112C0 .612.243.27.683.054c.3.293.602.585.9.882L9.73 9.043c.074.072.155.134.232.2v.05c-.048.043-.098.085-.144.13-2.97 2.96-5.938 5.922-8.906 8.883-.053.053-.102.11-.153.164" fill="#46D3D2" mask="url(#b)"/></g><path d="M9.962 10.117c-.077-.067-.16-.13-.23-.2L1.58 1.808c-.297-.298-.6-.59-.9-.883.403-.174.77-.05 1.123.143 1.262.69 2.526 1.376 3.783 2.074 2.36 1.31 4.714 2.63 7.07 3.946.08.045.156.1.234.15-.616.61-1.23 1.22-1.85 1.826-.357.353-.72.7-1.08 1.05" fill="#AEE8B3"/><g transform="translate(.73 10.126)"><mask id="d" fill="#fff"><use xlink:href="#c"/></mask><path d="M.028 9.217c.05-.055.1-.11.153-.164C3.15 6.093 6.12 3.13 9.088.17c.046-.045.096-.087.145-.13.95.923 1.9 1.847 2.818 2.804-1.073.61-2.144 1.222-3.22 1.826C6.22 6.135 3.607 7.595.998 9.06c-.308.174-.624.24-.97.157" fill="#D14D90" mask="url(#d)"/></g><path d="M12.78 12.97c-.916-.957-1.867-1.88-2.817-2.805-.002-.016-.002-.032 0-.048.36-.35.722-.698 1.08-1.05.618-.608 1.233-1.218 1.85-1.826 1.21.65 2.396 1.338 3.577 2.038.47.277.61 1.323-.065 1.68-1.165.615-2.3 1.286-3.446 1.933-.057.033-.12.054-.18.08" fill="#FDBE7E"/></g></svg>